<svg xmlns="http://www.w3.org/2000/svg" width="282" height="68" viewBox="0 0 282 68" role="img" aria-labelledby="title"><title id="title">Selected work</title><rect width="282" height="68" rx="8" fill="#1E2422"/><g fill="#B5C791"><g aria-label="02" transform="translate(16 40) scale(0.012000 -0.012000)"><path transform="translate(0.000 0)" d="M300 -12Q221 -12 160.5 32.0Q100 76 66.5 157.0Q33 238 33 350Q33 462 66.5 543.0Q100 624 160.5 668.0Q221 712 300 712Q380 712 440.0 668.0Q500 624 533.5 543.0Q567 462 567 350Q567 238 533.5 157.0Q500 76 440.0 32.0Q380 -12 300 -12ZM119 350Q119 282 133.5 227.5Q148 173 174 136L368 617Q337 634 300 634Q247 634 206.0 599.5Q165 565 142.0 501.5Q119 438 119 350ZM300 65Q353 65 394.0 99.5Q435 134 458.0 198.0Q481 262 481 350Q481 418 466.5 472.5Q452 527 426 564L231 82Q263 65 300 65Z"/><path transform="translate(600.000 0)" d="M74 0V66Q182 152 262.5 224.0Q343 296 387.0 363.0Q431 430 431 500Q431 563 395.5 599.5Q360 636 300 636Q254 636 222.0 616.0Q190 596 174.0 563.0Q158 530 158 492H75Q76 561 105.5 610.5Q135 660 185.5 686.0Q236 712 300 712Q403 712 460.0 655.0Q517 598 517 502Q517 439 490.0 381.5Q463 324 418.0 271.0Q373 218 317.0 169.0Q261 120 204 75H536V0Z"/></g></g><g fill="#F0EDE4"><g aria-label="Selected work" transform="translate(58 44) scale(0.032000 -0.032000)"><path transform="translate(0.000 0)" d="M299.2236328125 -12Q223.39599609375 -12 163.7581787109375 14.241455078125Q104.120361328125 40.48291015625 69.8963623046875 90.48291015625Q35.67236328125 140.48291015625 33.913818359375 211.17236328125H177.014892578125Q178.187255859375 179.55126953125 192.8770751953125 154.7232666015625Q207.56689453125 129.895263671875 234.49835205078125 115.5501708984375Q261.4298095703125 101.205078125 298.8443603515625 101.205078125Q330.1898193359375 101.205078125 353.82818603515625 110.91217041015625Q377.466552734375 120.6192626953125 390.9840087890625 139.4989013671875Q404.50146484375 158.3785400390625 404.50146484375 185.792724609375Q404.50146484375 216.0345458984375 389.53582763671875 236.2589111328125Q374.5701904296875 256.4832763671875 348.57000732421875 270.6385498046875Q322.56982421875 284.7938232421875 289.51328938802084 296.0692962646484Q256.4567545572917 307.3447692871094 220.4312744140625 319.483642578125Q137.3621826171875 347.72509765625 93.53472900390625 392.983642578125Q49.707275390625 438.2421875 49.707275390625 512.862548828125Q49.707275390625 574.896728515625 80.0174560546875 619.3449096679688Q110.32763671875 663.7930908203125 164.2239990234375 687.8965454101562Q218.120361328125 712 287.292724609375 712Q358.39599609375 712 411.999267578125 687.2930908203125Q465.6025390625 662.586181640625 496.8265380859375 617.0345458984375Q528.050537109375 571.48291015625 529.80908203125 508.62109375H384.949462890625Q384.36328125 534.000732421875 371.794189453125 554.38037109375Q359.22509765625 574.760009765625 337.12127685546875 586.984375Q315.0174560546875 599.208740234375 284.637451171875 599.208740234375Q258.5679931640625 600.0018310546875 237.2745361328125 591.4154663085938Q215.9810791015625 582.8291015625 203.5843505859375 565.6563720703125Q191.1876220703125 548.483642578125 191.1876220703125 522.034912109375Q191.1876220703125 497.241455078125 203.03253173828125 480.0516357421875Q214.87744140625 462.86181640625 236.68798828125 450.4996337890625Q258.49853515625 438.137451171875 288.27471923828125 427.08563232421875Q318.0509033203125 416.0338134765625 353.9134521484375 403.93017578125Q406.6719970703125 386.1370849609375 450.482177734375 361.6370849609375Q494.2923583984375 337.1370849609375 520.516357421875 298.171630859375Q546.7403564453125 259.2061767578125 546.7403564453125 195.9305419921875Q546.7403564453125 140.447998046875 518.2921752929688 93.103271484375Q489.843994140625 45.758544921875 434.9130859375 16.8792724609375Q379.982177734375 -12 299.2236328125 -12Z"/><path transform="translate(556.000 0)" d="M296.326904296875 -12Q220.05126953125 -12 161.5341796875 20.2069091796875Q103.01708984375 52.413818359375 70.0516357421875 110.0345458984375Q37.086181640625 167.6552734375 37.086181640625 243.310546875Q37.086181640625 321.13818359375 69.5516357421875 380.6036376953125Q102.01708984375 440.069091796875 160.447998046875 474.0345458984375Q218.87890625 508 296.568359375 508Q370.74072265625 508 427.1370849609375 475.7930908203125Q483.533447265625 443.586181640625 515.3436279296875 388.4483642578125Q547.15380859375 333.310546875 547.15380859375 263.10400390625Q547.15380859375 253.10400390625 546.8607177734375 240.7247314453125Q546.567626953125 228.345458984375 544.9814453125 214.931640625H133.49853515625V297.51708984375H410.22509765625Q407.22509765625 344.2421875 375.5694580078125 372.19091796875Q343.913818359375 400.1396484375 296.9130859375 400.1396484375Q262.11962890625 400.1396484375 233.0330810546875 384.65673828125Q203.946533203125 369.173828125 187.0152587890625 337.93218994140625Q170.083984375 306.6905517578125 170.083984375 258.690185546875V229.517822265625Q170.083984375 189.4134521484375 186.0498046875 159.843994140625Q202.015625 130.2745361328125 230.61944580078125 114.1708984375Q259.2232666015625 98.0672607421875 295.154541015625 98.0672607421875Q331.913818359375 98.0672607421875 356.94873046875 114.4468994140625Q381.983642578125 130.8265380859375 395.052734375 157.37890625H532.567626953125Q518.395263671875 109.620361328125 485.1712646484375 71.275634765625Q451.947265625 32.930908203125 403.93017578125 10.4654541015625Q355.9130859375 -12 296.326904296875 -12Z"/><path transform="translate(1110.000 0)" d="M54.9483642578125 0V710H189.9461669921875V0Z"/><path transform="translate(1330.000 0)" d="M296.326904296875 -12Q220.05126953125 -12 161.5341796875 20.2069091796875Q103.01708984375 52.413818359375 70.0516357421875 110.0345458984375Q37.086181640625 167.6552734375 37.086181640625 243.310546875Q37.086181640625 321.13818359375 69.5516357421875 380.6036376953125Q102.01708984375 440.069091796875 160.447998046875 474.0345458984375Q218.87890625 508 296.568359375 508Q370.74072265625 508 427.1370849609375 475.7930908203125Q483.533447265625 443.586181640625 515.3436279296875 388.4483642578125Q547.15380859375 333.310546875 547.15380859375 263.10400390625Q547.15380859375 253.10400390625 546.8607177734375 240.7247314453125Q546.567626953125 228.345458984375 544.9814453125 214.931640625H133.49853515625V297.51708984375H410.22509765625Q407.22509765625 344.2421875 375.5694580078125 372.19091796875Q343.913818359375 400.1396484375 296.9130859375 400.1396484375Q262.11962890625 400.1396484375 233.0330810546875 384.65673828125Q203.946533203125 369.173828125 187.0152587890625 337.93218994140625Q170.083984375 306.6905517578125 170.083984375 258.690185546875V229.517822265625Q170.083984375 189.4134521484375 186.0498046875 159.843994140625Q202.015625 130.2745361328125 230.61944580078125 114.1708984375Q259.2232666015625 98.0672607421875 295.154541015625 98.0672607421875Q331.913818359375 98.0672607421875 356.94873046875 114.4468994140625Q381.983642578125 130.8265380859375 395.052734375 157.37890625H532.567626953125Q518.395263671875 109.620361328125 485.1712646484375 71.275634765625Q451.947265625 32.930908203125 403.93017578125 10.4654541015625Q355.9130859375 -12 296.326904296875 -12Z"/><path transform="translate(1884.000 0)" d="M297.809814453125 -12Q220.0858154296875 -12 161.3798162286932 21.415585310099512Q102.67381702769886 54.831170620199025 69.87999933416194 113.38306406900149Q37.086181640625 171.93495751780395 37.086181640625 247.61601360886124Q37.086181640625 324.241455078125 70.32909046519886 382.538330078125Q103.57199928977272 440.835205078125 162.55308948863637 474.4176025390625Q221.5341796875 508 298.04656356973277 508Q394.1266796529925 508 459.84715330305875 457.896728515625Q525.567626953125 407.79345703125 543.326171875 319.656005859375H400.466552734375Q391.638916015625 354.9669189453125 363.5817612156724 374.5189208984375Q335.5246064157197 394.0709228515625 296.809814453125 394.0709228515625Q262.43017578125 394.0709228515625 234.80908203125 376.77764892578125Q207.18798828125 359.484375 190.9290771484375 326.73280519133164Q174.670166015625 293.9812353826632 174.670166015625 248Q174.670166015625 214.07140921044538 183.8599853515625 187.37988185131644Q193.0498046875 160.6883544921875 209.58453369140625 141.6708984375Q226.1192626953125 122.6534423828125 248.2919921875 112.705078125Q270.4647216796875 102.7567138671875 296.91655602615873 102.7567138671875Q322.73609657060683 102.7567138671875 343.6658161009532 111.39937118486891Q364.5955356312996 120.04202850255032 379.6565516661589 136.5480033064049Q394.71756770101825 153.05397811025944 400.466552734375 176.343994140625H543.326171875Q525.567626953125 90.36334607830156 459.705810546875 39.18167303915078Q393.843994140625 -12 297.809814453125 -12Z"/><path transform="translate(2439.000 0)" d="M277.6712646484375 0Q225.0509033203125 0 185.309814453125 16.6378173828125Q145.5687255859375 33.275634765625 123.67236328125 71.7581787109375Q101.7760009765625 110.24072265625 101.7760009765625 176.61962890625V385.6571044921875H16.9483642578125V496H101.7760009765625L116.65852637557 630.826904296875H236.76847746550786V496H368.7054443359375V385.6571044921875H236.7738037109375V175.447265625Q236.7738037109375 140.3087158203125 251.6705322265625 126.8258056640625Q266.5672607421875 113.3428955078125 302.8436279296875 113.3428955078125H365.9810791015625V0Z"/><path transform="translate(2808.000 0)" d="M296.326904296875 -12Q220.05126953125 -12 161.5341796875 20.2069091796875Q103.01708984375 52.413818359375 70.0516357421875 110.0345458984375Q37.086181640625 167.6552734375 37.086181640625 243.310546875Q37.086181640625 321.13818359375 69.5516357421875 380.6036376953125Q102.01708984375 440.069091796875 160.447998046875 474.0345458984375Q218.87890625 508 296.568359375 508Q370.74072265625 508 427.1370849609375 475.7930908203125Q483.533447265625 443.586181640625 515.3436279296875 388.4483642578125Q547.15380859375 333.310546875 547.15380859375 263.10400390625Q547.15380859375 253.10400390625 546.8607177734375 240.7247314453125Q546.567626953125 228.345458984375 544.9814453125 214.931640625H133.49853515625V297.51708984375H410.22509765625Q407.22509765625 344.2421875 375.5694580078125 372.19091796875Q343.913818359375 400.1396484375 296.9130859375 400.1396484375Q262.11962890625 400.1396484375 233.0330810546875 384.65673828125Q203.946533203125 369.173828125 187.0152587890625 337.93218994140625Q170.083984375 306.6905517578125 170.083984375 258.690185546875V229.517822265625Q170.083984375 189.4134521484375 186.0498046875 159.843994140625Q202.015625 130.2745361328125 230.61944580078125 114.1708984375Q259.2232666015625 98.0672607421875 295.154541015625 98.0672607421875Q331.913818359375 98.0672607421875 356.94873046875 114.4468994140625Q381.983642578125 130.8265380859375 395.052734375 157.37890625H532.567626953125Q518.395263671875 109.620361328125 485.1712646484375 71.275634765625Q451.947265625 32.930908203125 403.93017578125 10.4654541015625Q355.9130859375 -12 296.326904296875 -12Z"/><path transform="translate(3362.000 0)" d="M274.9612731933594 -12Q205.40509033203125 -12 151.62490844726562 21.81036376953125Q97.8447265625 55.6207275390625 67.4654541015625 114.6207275390625Q37.086181640625 173.6207275390625 37.086181640625 248.5Q37.086181640625 323.40670460668105 67.4654541015625 382.1429885338093Q97.8447265625 440.8792724609375 152.2935293186976 474.43963623046875Q206.74233207489524 508 277.5174560546875 508Q334.017822265625 508 376.06109619140625 486.71527099609375Q418.1043701171875 465.4305419921875 442.8974609375 431.08544921875V710H577.895263671875V0H461.2247314453125L450.000732421875 78.2418212890625H448.000732421875Q430.9661865234375 51.7589111328125 406.29364013671875 31.45709228515625Q381.62109375 11.1552734375 349.19854736328125 -0.42236328125Q316.7760009765625 -12 274.9612731933594 -12ZM309.7578125 102.3258056640625Q350.3578156502016 102.3258056640625 381.01527257119454 121.1363525390625Q411.6727294921875 139.9468994140625 428.8194580078125 172.7779279841933Q445.9661865234375 205.60895655432412 445.9661865234375 248.5030256404433Q445.9661865234375 291.3970947265625 428.8194580078125 324.16473388671875Q411.6727294921875 356.932373046875 380.92935234203674 375.59637451171875Q350.185975191886 394.2603759765625 309.4698636239035 394.2603759765625Q270.1021728515625 394.2603759765625 239.1440703293373 375.52199161413944Q208.18596780711206 356.7836072517164 191.17806691136855 323.9615686590021Q174.170166015625 291.1395300662879 174.170166015625 248.7504901308002Q174.170166015625 205.7752685546875 191.16309305202742 172.90504760742186Q208.15602008842984 140.03482666015626 239.08774009657785 121.18031616210938Q270.01946010472585 102.3258056640625 309.7578125 102.3258056640625Z"/><path transform="translate(4162.000 0)" d="M147.8450927734375 0 10.396728515625 496H143.635986328125L234.96435546875 86.9305419921875L220.3094482421875 87.4305419921875L323.7410888671875 496H475.3250732421875L579.5843505859375 87.7236328125L564.7225341796875 87.2236328125L655.43017578125 496H789.083251953125L650.8072509765625 0H500.4130859375L391.222900390625 413.4490966796875H407.84326171875L298.2392578125 0Z"/><path transform="translate(4936.000 0)" d="M291.527292219675 -12Q219.947998046875 -12 162.189453125 21.17236328125Q104.430908203125 54.3447265625 70.758544921875 113.00777871620964Q37.086181640625 171.67083086991929 37.086181640625 247.82331862933282Q37.086181640625 324.6552734375 70.9654541015625 383.4483642578125Q104.8447265625 442.241455078125 162.7459261380709 475.1207275390625Q220.64712571364183 508 292.2194299271692 508Q364.292724609375 508 422.05126953125 475.1207275390625Q479.809814453125 442.241455078125 513.482177734375 383.5388814991918Q547.154541015625 324.8363079202586 547.154541015625 247.86748855467943Q547.154541015625 171.3447265625 513.2752685546875 112.8447265625Q479.39599609375 54.3447265625 421.5018343538851 21.17236328125Q363.60767261402026 -12 291.527292219675 -12ZM291.54266290350273 103.1014404296875Q324.1552734375 103.1014404296875 350.60400390625 119.22235107421875Q377.052734375 135.34326171875 393.3116455078125 167.67059355913437Q409.570556640625 199.99792539951875 409.570556640625 247.98489784983406Q409.570556640625 296.3762948724288 393.5185546875 328.6199711666832Q377.466552734375 360.8636474609375 350.98565376095655 376.881103515625Q324.5047547875381 392.8985595703125 292.67741351100784 392.8985595703125Q261.08544921875 392.8985595703125 234.13671875 376.881103515625Q207.18798828125 360.8636474609375 190.9290771484375 328.56997116668316Q174.670166015625 296.2762948724288 174.670166015625 247.89626461482916Q174.670166015625 200.0447771190542 190.9290771484375 167.6940194189021Q207.18798828125 135.34326171875 233.722900390625 119.22235107421875Q260.2578125 103.1014404296875 291.54266290350273 103.1014404296875Z"/><path transform="translate(5495.000 0)" d="M52.4483642578125 0V496H169.946533203125L182.135986328125 395.17236328125H184.135986328125Q204.3428955078125 437.413818359375 230.5152587890625 462.01727294921875Q256.6876220703125 486.6207275390625 290.730712890625 497.31036376953125Q324.7738037109375 508 366.5843505859375 508V365.485107421875H329.722900390625Q297.0330810546875 365.485107421875 270.44671630859375 358.0367431640625Q243.8603515625 350.58837890625 225.39471435546875 334.3123779296875Q206.9290771484375 318.036376953125 197.1876220703125 290.82928466796875Q187.4461669921875 263.6221923828125 187.4461669921875 223.8978271484375V0Z"/><path transform="translate(5850.000 0)" d="M386.4647216796875 0 170.0843505859375 273 361.2923583984375 496H521.1519775390625L273.53125 216.621826171875L273.1519775390625 323.516357421875L554.4276123046875 0ZM54.9483642578125 0V710H189.9461669921875V0Z"/></g></g></svg>