<svg xmlns="http://www.w3.org/2000/svg" width="1200" height="380" viewBox="0 0 1200 380" role="img" aria-labelledby="title desc">
  <title id="title">Hello, I'm Worakan</title>
  <desc id="desc">A pastel pink profile banner with a friendly bear, clouds, flowers and stars. Frontend developer and computer science student.</desc>
  <rect width="1200" height="380" rx="32" fill="#fff7ef"/>
  <rect x="16" y="16" width="1168" height="348" rx="24" fill="none" stroke="#ead6ce" stroke-dasharray="5 8"/>
  <circle cx="1060" cy="75" r="155" fill="#f9dce5"/>
  <circle cx="90" cy="375" r="120" fill="#e4e9d7"/>
  <g fill="#fffdf9">
    <path d="M810 85c-9-25-42-23-49-2-24-7-42 9-38 27h134c4-19-20-37-39-25z"/>
    <path d="M1070 266c-9-25-42-23-49-2-24-7-42 9-38 27h134c4-19-20-37-39-25z"/>
  </g>
  <g font-family="Verdana, Geneva, sans-serif" fill="#62483f">
    <text x="78" y="95" font-size="14" letter-spacing="4">WELCOME TO MY LITTLE CORNER</text>
    <text x="74" y="175" font-size="58" font-weight="700">Hello, I'm Worakan!</text>
    <text x="78" y="221" font-size="21">Frontend developer · Computer science student</text>
    <rect x="78" y="255" width="458" height="42" rx="21" fill="#f5dce3"/>
    <text x="100" y="282" font-size="16">A little curiosity. A lot of care. Let's build.</text>
  </g>
  <g stroke="#765347" stroke-width="4">
    <circle cx="897" cy="139" r="36" fill="#d7b298"/>
    <circle cx="1033" cy="139" r="36" fill="#d7b298"/>
    <circle cx="897" cy="139" r="19" fill="#f4c5c7" stroke="none"/>
    <circle cx="1033" cy="139" r="19" fill="#f4c5c7" stroke="none"/>
    <rect x="869" y="133" width="193" height="167" rx="79" fill="#dfbea4"/>
    <ellipse cx="965" cy="244" rx="43" ry="32" fill="#fff1df" stroke="none"/>
    <path d="M952 233q13-12 26 0l-13 12z" fill="#765347" stroke-linejoin="round"/>
    <path d="M965 245v8m0-1q-10 12-20 0m20 0q10 12 20 0" fill="none" stroke-linecap="round"/>
  </g>
  <g fill="#62483f"><ellipse cx="927" cy="214" rx="5" ry="7"/><ellipse cx="1003" cy="214" rx="5" ry="7"/></g>
  <g fill="#eaa6ad"><ellipse cx="910" cy="237" rx="15" ry="8"/><ellipse cx="1020" cy="237" rx="15" ry="8"/></g>
  <path d="m1100 132 6 17 18 6-18 6-6 18-6-18-18-6 18-6zM826 264l5 13 14 5-14 5-5 14-5-14-14-5 14-5z" fill="#c29a51"/>
  <g fill="#cf8fa6"><circle cx="1110" cy="325" r="8"/><circle cx="1124" cy="325" r="8"/><circle cx="1117" cy="313" r="8"/><circle cx="1117" cy="337" r="8"/></g>
  <circle cx="1117" cy="325" r="6" fill="#ffe7a6"/>
</svg>
